<svg
  xmlns="http://www.w3.org/2000/svg" version="1.1"
  xmlns:dc="http://purl.org/dc/elements/1.1/"
  xmlns:rdf="http://www.w3.org/1999/02/22-rdf-syntax-ns#"
  xmlns:svg="http://www.w3.org/2000/svg"
  xmlns:xlink="http://www.w3.org/1999/xlink" viewBox="0 0 294 50">
  <title>Steve Wheeler Logo</title>
  <metadata>
    <rdf:RDF>
      <rdf:Description rdf:about="">
        <dc:format>image/svg+xml</dc:format>
        <dc:type rdf:resource="http://purl.org/dc/dcmitype/StillImage"/>
        <dc:title>Steve Wheeler Logo</dc:title>
        <dc:creator>Steve Wheeler</dc:creator>
        <dc:description>Steve Wheeler logo by Steve Wheeler.</dc:description>
        <dc:publisher>Steve Wheeler</dc:publisher>
        <dc:date>2014-10-06</dc:date>
        <dc:identifier>http://swheeler.com/</dc:identifier>
        <dc:source>http://swheeler.com/</dc:source>
        <dc:rights>Copyright © 2014 Steve Wheeler. All rights reserved.</dc:rights>
      </rdf:Description>
    </rdf:RDF>
  </metadata>
  <style type="text/css">
    <![CDATA[
    path { fill: #222; }
    a:hover path { fill: #4372aa; }
    ]]>
  </style>
 <a xlink:title="Home" xlink:href="/" target="_top">
  <rect fill-opacity="0" height="50" width="294" y="0" x="0"/>
  <path d="m18.4,8.03,0.74,0c-0.074-1.48-0.358-2.73-0.851-3.74-0.493-1.04-1.16-1.86-2-2.48-0.814-0.641-1.78-1.1-2.89-1.37-1.09-0.296-2.28-0.444-3.59-0.444-1.06,0.00002-2.13,0.111-3.22,0.333-1.06,0.222-2.02,0.592-2.89,1.11-0.863,0.518-1.57,1.22-2.11,2.11-0.543,0.863-0.814,1.95-0.814,3.26-0.000002,1.28,0.259,2.33,0.777,3.14,0.518,0.789,1.2,1.43,2.04,1.92,0.863,0.469,1.83,0.839,2.89,1.11s2.12,0.53,3.18,0.777c1.01,0.247,2.06,0.493,3.14,0.74,1.11,0.222,2.11,0.567,3,1.04,0.913,0.444,1.65,1.06,2.22,1.85,0.592,0.765,0.888,1.81,0.888,3.14-0.00002,1.13-0.259,2.11-0.777,2.92-0.493,0.814-1.15,1.48-1.96,2-0.814,0.518-1.74,0.9-2.78,1.15-1.01,0.222-2.04,0.333-3.07,0.333-1.41,0-2.7-0.148-3.88-0.444-1.16-0.321-2.17-0.826-3.03-1.52-0.839-0.691-1.49-1.58-1.96-2.66-0.469-1.11-0.703-2.45-0.703-4.03h-0.74c-0.0247,1.68,0.21,3.11,0.703,4.29,0.518,1.18,1.23,2.16,2.15,2.92,0.937,0.74,2.03,1.28,3.29,1.63,1.28,0.345,2.68,0.518,4.18,0.518,1.13,0,2.26-0.136,3.37-0.407,1.11-0.247,2.11-0.654,3-1.22,0.888-0.592,1.6-1.33,2.15-2.22,0.543-0.888,0.814-1.96,0.814-3.22-0.00002-1.38-0.247-2.48-0.74-3.29-0.469-0.814-1.11-1.47-1.92-1.96-0.814-0.493-1.78-0.888-2.89-1.18-1.09-0.296-2.24-0.604-3.48-0.925-1.13-0.271-2.24-0.53-3.33-0.777s-2.06-0.592-2.92-1.04c-0.839-0.444-1.53-1.02-2.07-1.74-0.518-0.715-0.777-1.66-0.777-2.85-0.000003-1.18,0.259-2.16,0.777-2.92,0.518-0.789,1.17-1.42,1.96-1.89,0.814-0.469,1.71-0.789,2.7-0.962,0.987-0.197,1.94-0.296,2.85-0.296,1.18,0.00002,2.29,0.123,3.33,0.37s1.92,0.666,2.66,1.26c0.765,0.567,1.37,1.32,1.81,2.26,0.469,0.913,0.728,2.05,0.777,3.4"/>
  <path d="m18.8,1.37,9.47,0,0,25.7,0.74,0,0-25.7,9.51,0,0-0.74-19.7,0,0,0.74"/>
  <path id="e1" d="m41.1,26.3,0-12.7,15.8,0,0-0.74-15.8,0,0-11.5,16.8,0,0-0.74-17.5,0,0,26.4,17.7,0,0-0.74-16.9,0"/>
  <path d="m80.1,0.629-9.69,25.5-0.074,0-9.99-25.5-0.703,0,10.3,26.4,0.814,0,10.1-26.4-0.74,0"/>
  <path d="m138,0.629-7.4,26.4-7.92,0-2.85-16.1-0.074,0-2.78,16.1-7.96,0-7.18-26.4,7.99,0,3.22,16.3,0.074,0,3.18-16.3,7.18,0,3.11,16.5,0.074,0,3.29-16.5,8.03,0"/>
  <path d="m140,27,0-26.4,8.14,0,0,9.18,7.62,0,0-9.18,8.14,0,0,26.4-8.14,0,0-10.5-7.62,0,0,10.5-8.14,0"/>
  <path id="e2" d="m168,27,0-26.4,21.9,0,0,6.77-13.7,0,0,3.29,12.5,0,0,6.29-12.5,0,0,3.29,14.1,0,0,6.77-22.3,0"/>
  <path d="m220,27,0-26.4,8.14,0,0,19.6,11.7,0,0,6.77-19.8,0"/>
  <path d="m269,27,0-26.4,15.5,0c2.44,0.00002,4.49,0.666,6.14,2,1.65,1.31,2.48,3.16,2.48,5.55-0.00002,1.48-0.345,2.84-1.04,4.07-0.666,1.23-1.64,2.08-2.92,2.55,1.11,0.419,2,1.21,2.66,2.37,0.666,1.16,1.07,2.57,1.22,4.22-0.00002,0.0987,0.0246,0.506,0.074,1.22,0.0493,0.691,0.0863,1.26,0.111,1.7,0.0493,0.419,0.136,0.913,0.259,1.48s0.271,0.987,0.444,1.26h-8.14c-0.296-0.987-0.518-2.34-0.666-4.07-0.0494-0.691-0.0987-1.2-0.148-1.52-0.0494-0.345-0.16-0.789-0.333-1.33-0.148-0.567-0.345-0.974-0.592-1.22-0.222-0.271-0.555-0.518-0.999-0.74s-0.974-0.333-1.59-0.333h-4.33v9.21h-8.14m8.14-20.1,0,5.25,4.26,0c2.39,0.00001,3.59-0.876,3.59-2.63-0.00001-0.888-0.308-1.54-0.925-1.96-0.592-0.444-1.63-0.666-3.11-0.666h-3.81"/>
  <use xlink:href="#e2" transform="translate(25.98563,0)" height="50" width="294" y="0" x="0"/>
  <use xlink:href="#e2" transform="translate(75.23078,0)" height="50" width="294" y="0" x="0"/>
  <use xlink:href="#e1" transform="translate(41.99609,0)" height="50" width="294" y="0" x="0"/>
  <path id="d1" d="m112,41.4c-0.00001,0.405-0.038,0.798-0.114,1.18-0.076,0.38-0.203,0.722-0.38,1.03-0.177,0.291-0.418,0.526-0.722,0.703-0.291,0.177-0.659,0.266-1.1,0.266-0.418,0.00001-0.779-0.0887-1.08-0.266-0.291-0.19-0.538-0.431-0.741-0.722-0.19-0.304-0.329-0.646-0.418-1.03-0.0887-0.38-0.133-0.76-0.133-1.14,0-0.405,0.038-0.792,0.114-1.16,0.0887-0.38,0.222-0.716,0.399-1.01,0.19-0.291,0.437-0.526,0.741-0.703s0.678-0.266,1.12-0.266c0.443,0.00001,0.811,0.0887,1.1,0.266,0.291,0.177,0.526,0.412,0.703,0.703,0.19,0.279,0.323,0.608,0.399,0.988,0.076,0.367,0.114,0.754,0.114,1.16m0.038,3.69,0,1.25,2.56,0,0-13.6-2.7,0,0,4.94-0.038,0c-0.304-0.481-0.722-0.842-1.25-1.08-0.519-0.253-1.07-0.38-1.65-0.38-0.722,0.00001-1.36,0.146-1.9,0.437-0.545,0.279-1,0.652-1.37,1.12-0.355,0.469-0.627,1.01-0.817,1.63-0.177,0.608-0.266,1.24-0.266,1.9,0,0.684,0.0887,1.34,0.266,1.98,0.19,0.633,0.462,1.2,0.817,1.69,0.367,0.481,0.83,0.868,1.39,1.16,0.557,0.279,1.2,0.418,1.94,0.418,0.646,0,1.22-0.114,1.73-0.342,0.519-0.241,0.937-0.627,1.25-1.16h0.038"/>
  <path id="e3" d="m124,40.3-4.39,0c0.0127-0.19,0.0507-0.405,0.114-0.646,0.076-0.241,0.196-0.469,0.361-0.684,0.177-0.215,0.405-0.393,0.684-0.532,0.291-0.152,0.652-0.228,1.08-0.228,0.659,0.00001,1.15,0.177,1.46,0.532,0.329,0.355,0.557,0.874,0.684,1.56m-4.39,1.71,7.09,0c0.0506-0.76-0.0127-1.49-0.19-2.18-0.177-0.697-0.469-1.32-0.874-1.86-0.393-0.545-0.899-0.975-1.52-1.29-0.621-0.329-1.35-0.494-2.18-0.494-0.747,0.00001-1.43,0.133-2.05,0.399-0.608,0.266-1.13,0.633-1.58,1.1-0.443,0.456-0.785,1-1.03,1.63-0.241,0.633-0.361,1.32-0.361,2.05,0,0.76,0.114,1.46,0.342,2.09,0.241,0.633,0.576,1.18,1.01,1.63,0.431,0.456,0.956,0.811,1.58,1.06,0.621,0.241,1.32,0.361,2.09,0.361,1.11,0,2.06-0.253,2.85-0.76,0.785-0.507,1.37-1.35,1.75-2.53h-2.38c-0.0887,0.304-0.329,0.595-0.722,0.874-0.393,0.266-0.861,0.399-1.41,0.399-0.76,0.00001-1.34-0.196-1.75-0.589-0.405-0.393-0.627-1.03-0.665-1.9"/>
  <path d="m134,46.3,3.32-9.82-2.68,0-2.07,6.71-0.038,0-2.07-6.71-2.83,0,3.36,9.82,3,0"/>
  <path d="m151,32.7,0,13.6,2.7,0,0-13.6-2.7,0"/>
  <path d="m158,41.4c0-0.393,0.038-0.779,0.114-1.16,0.076-0.38,0.203-0.716,0.38-1.01,0.19-0.291,0.437-0.526,0.741-0.703,0.304-0.19,0.684-0.285,1.14-0.285,0.456,0.00001,0.836,0.095,1.14,0.285,0.317,0.177,0.564,0.412,0.741,0.703,0.19,0.291,0.323,0.627,0.399,1.01,0.076,0.38,0.114,0.766,0.114,1.16-0.00001,0.393-0.038,0.779-0.114,1.16-0.076,0.367-0.209,0.703-0.399,1.01-0.177,0.291-0.424,0.526-0.741,0.703-0.304,0.177-0.684,0.266-1.14,0.266-0.456,0.00001-0.836-0.0887-1.14-0.266s-0.551-0.412-0.741-0.703c-0.177-0.304-0.304-0.64-0.38-1.01-0.076-0.38-0.114-0.766-0.114-1.16m-2.7,0c0,0.785,0.12,1.49,0.361,2.13,0.241,0.633,0.583,1.18,1.03,1.63,0.443,0.443,0.975,0.785,1.6,1.03,0.621,0.241,1.32,0.361,2.09,0.361,0.773,0,1.47-0.12,2.09-0.361,0.633-0.241,1.17-0.583,1.62-1.03,0.443-0.456,0.785-1,1.03-1.63,0.241-0.633,0.361-1.34,0.361-2.13-0.00001-0.785-0.12-1.49-0.361-2.13-0.241-0.646-0.583-1.19-1.03-1.63-0.443-0.456-0.982-0.804-1.62-1.04-0.621-0.253-1.32-0.38-2.09-0.38-0.773,0.00001-1.47,0.127-2.09,0.38-0.621,0.241-1.15,0.589-1.6,1.04-0.443,0.443-0.785,0.988-1.03,1.63-0.241,0.633-0.361,1.34-0.361,2.13"/>
  <path d="m173,44.5c-0.431,0.00001-0.798-0.0887-1.1-0.266-0.304-0.177-0.551-0.405-0.741-0.684-0.177-0.291-0.31-0.627-0.399-1.01-0.076-0.38-0.114-0.766-0.114-1.16,0-0.405,0.038-0.798,0.114-1.18,0.076-0.38,0.203-0.716,0.38-1.01,0.19-0.291,0.431-0.526,0.722-0.703,0.304-0.19,0.678-0.285,1.12-0.285,0.431,0.00001,0.792,0.095,1.08,0.285,0.304,0.177,0.551,0.418,0.741,0.722,0.19,0.291,0.323,0.627,0.399,1.01,0.0887,0.38,0.133,0.766,0.133,1.16-0.00001,0.393-0.038,0.779-0.114,1.16-0.076,0.38-0.209,0.716-0.399,1.01-0.177,0.279-0.418,0.507-0.722,0.684-0.291,0.177-0.659,0.266-1.1,0.266m-4.96-8.06,0,13.3,2.7,0,0-4.66,0.038,0c0.329,0.481,0.747,0.849,1.25,1.1,0.519,0.241,1.08,0.361,1.69,0.361,0.722,0,1.35-0.139,1.88-0.418,0.545-0.279,0.994-0.652,1.35-1.12,0.367-0.469,0.64-1.01,0.817-1.62,0.177-0.608,0.266-1.24,0.266-1.9-0.00001-0.697-0.0887-1.36-0.266-2-0.177-0.646-0.45-1.21-0.817-1.69-0.367-0.481-0.83-0.868-1.39-1.16-0.557-0.291-1.22-0.437-2-0.437-0.608,0.00001-1.17,0.12-1.67,0.361-0.507,0.241-0.925,0.627-1.25,1.16h-0.038v-1.25h-2.56"/>
  <path id="r1" d="m192,36.5,0,9.82,2.7,0,0-4.43c-0.00001-0.443,0.0443-0.855,0.133-1.24,0.0887-0.38,0.234-0.709,0.437-0.988,0.215-0.291,0.494-0.519,0.836-0.684s0.76-0.247,1.25-0.247c0.165,0.00001,0.336,0.0127,0.513,0.038,0.177,0.0127,0.329,0.0317,0.456,0.057v-2.51c-0.215-0.0633-0.412-0.095-0.589-0.095-0.342,0.00001-0.671,0.0507-0.988,0.152s-0.614,0.247-0.893,0.437c-0.279,0.177-0.526,0.399-0.741,0.665-0.215,0.253-0.386,0.532-0.513,0.836h-0.038v-1.82h-2.56"/>
  <path d="m206,40.5,0-3.78-2.03,0,0,3.78-3.78,0,0,2.03,3.78,0,0,3.78,2.03,0,0-3.78,3.78,0,0-2.03-3.78,0"/>
  <path d="m237,43.1-2.56,0c0.0253,0.659,0.171,1.21,0.437,1.65,0.279,0.431,0.627,0.779,1.04,1.04,0.431,0.266,0.918,0.456,1.46,0.57,0.545,0.114,1.1,0.171,1.67,0.171,0.557,0,1.1-0.057,1.63-0.171,0.545-0.101,1.03-0.285,1.44-0.551,0.418-0.266,0.754-0.614,1.01-1.04,0.266-0.443,0.399-0.988,0.399-1.63,0-0.456-0.0887-0.836-0.266-1.14-0.177-0.317-0.412-0.576-0.703-0.779-0.291-0.215-0.627-0.386-1.01-0.513-0.367-0.127-0.747-0.234-1.14-0.323-0.38-0.0887-0.754-0.171-1.12-0.247-0.367-0.076-0.697-0.158-0.988-0.247-0.279-0.101-0.507-0.228-0.684-0.38s-0.266-0.348-0.266-0.589c0-0.203,0.0507-0.361,0.152-0.475,0.101-0.127,0.222-0.222,0.361-0.285,0.152-0.0633,0.317-0.101,0.494-0.114,0.177-0.0253,0.342-0.038,0.494-0.038,0.481,0.00001,0.899,0.095,1.25,0.285,0.355,0.177,0.551,0.526,0.589,1.04h2.56c-0.0507-0.608-0.209-1.11-0.475-1.5-0.253-0.405-0.576-0.728-0.969-0.969s-0.842-0.412-1.35-0.513c-0.494-0.101-1.01-0.152-1.54-0.152-0.532,0.00001-1.05,0.0507-1.56,0.152-0.507,0.0887-0.963,0.253-1.37,0.494-0.405,0.228-0.735,0.545-0.988,0.95-0.241,0.405-0.361,0.925-0.361,1.56,0,0.431,0.0887,0.798,0.266,1.1,0.177,0.291,0.412,0.538,0.703,0.741,0.291,0.19,0.621,0.348,0.988,0.475,0.38,0.114,0.766,0.215,1.16,0.304,0.963,0.203,1.71,0.405,2.24,0.608,0.545,0.203,0.817,0.507,0.817,0.912,0,0.241-0.057,0.443-0.171,0.608-0.114,0.152-0.26,0.279-0.437,0.38-0.165,0.0887-0.355,0.158-0.57,0.209-0.203,0.038-0.399,0.057-0.589,0.057-0.266,0.00001-0.526-0.0317-0.779-0.095-0.241-0.0633-0.456-0.158-0.646-0.285-0.19-0.139-0.348-0.31-0.475-0.513-0.114-0.215-0.171-0.469-0.171-0.76"/>
  <path d="m249,35,0-2.22-2.7,0,0,2.22,2.7,0m-2.7,1.52,0,9.82,2.7,0,0-9.82-2.7,0"/>
  <path d="m256,44c-0.418,0.00001-0.766-0.0887-1.04-0.266-0.279-0.177-0.507-0.405-0.684-0.684-0.165-0.279-0.285-0.589-0.361-0.931-0.0633-0.355-0.095-0.709-0.095-1.06,0-0.367,0.038-0.716,0.114-1.04,0.0887-0.342,0.222-0.64,0.399-0.893,0.19-0.266,0.418-0.475,0.684-0.627,0.279-0.152,0.608-0.228,0.988-0.228,0.443,0.00001,0.811,0.0823,1.1,0.247,0.291,0.165,0.526,0.386,0.703,0.665s0.304,0.602,0.38,0.969c0.076,0.355,0.114,0.735,0.114,1.14-0.00001,0.355-0.0507,0.697-0.152,1.03-0.0887,0.317-0.228,0.602-0.418,0.855s-0.431,0.456-0.722,0.608-0.627,0.228-1.01,0.228m4.86,1.69,0-9.2-2.56,0,0,1.31-0.038,0c-0.329-0.57-0.741-0.975-1.24-1.22-0.481-0.241-1.04-0.361-1.69-0.361-0.684,0.00001-1.29,0.133-1.82,0.399-0.519,0.266-0.956,0.627-1.31,1.08-0.355,0.443-0.627,0.963-0.817,1.56-0.177,0.583-0.266,1.19-0.266,1.82,0,0.671,0.076,1.31,0.228,1.92,0.165,0.595,0.418,1.12,0.76,1.58,0.342,0.443,0.779,0.798,1.31,1.06,0.532,0.253,1.17,0.38,1.9,0.38,0.595,0,1.16-0.12,1.69-0.361,0.545-0.253,0.963-0.64,1.25-1.16h0.038v1.29c0.0127,0.697-0.158,1.27-0.513,1.73-0.342,0.456-0.893,0.684-1.65,0.684-0.481,0-0.906-0.101-1.27-0.304-0.367-0.19-0.614-0.538-0.741-1.04h-2.68c0.038,0.557,0.19,1.03,0.456,1.42,0.279,0.405,0.621,0.735,1.03,0.988,0.418,0.253,0.874,0.437,1.37,0.551,0.507,0.127,1,0.19,1.48,0.19,1.13,0,2.03-0.152,2.7-0.456,0.671-0.304,1.18-0.678,1.54-1.12,0.355-0.431,0.583-0.899,0.684-1.41,0.114-0.507,0.171-0.956,0.171-1.35"/>
  <path d="m264,36.5,0,9.82,2.7,0,0-5.15c-0.00001-1,0.165-1.72,0.494-2.15,0.329-0.443,0.861-0.665,1.6-0.665,0.646,0.00001,1.1,0.203,1.35,0.608,0.253,0.393,0.38,0.994,0.38,1.8v5.55h2.7v-6.04c-0.00001-0.608-0.057-1.16-0.171-1.65-0.101-0.507-0.285-0.931-0.551-1.27-0.266-0.355-0.633-0.627-1.1-0.817-0.456-0.203-1.05-0.304-1.77-0.304-0.57,0.00001-1.13,0.133-1.67,0.399-0.545,0.253-0.988,0.665-1.33,1.24h-0.057v-1.37h-2.56"/>
  <use xlink:href="#e3" transform="translate(21.88129,0)" height="50" width="294" y="0" x="0"/>
  <use xlink:href="#e3" transform="translate(63.15742,0)" height="50" width="294" y="0" x="0"/>
  <use xlink:href="#e3" transform="translate(106.66016,0)" height="50" width="294" y="0" x="0"/>
  <use xlink:href="#e3" transform="translate(158.35746,0)" height="50" width="294" y="0" x="0"/>
  <use xlink:href="#d1" transform="translate(106.66016,0)" height="50" width="294" y="0" x="0"/>
  <use xlink:href="#r1" transform="translate(95.2,0)" height="50" width="294" y="0" x="0"/>
 </a>
</svg>
